<svg xmlns="http://www.w3.org/2000/svg" width="240" height="280" viewBox="0 0 240 280">
  <defs><style>.o{stroke:#1f1f1f;stroke-width:4;stroke-linejoin:round;stroke-linecap:round}</style></defs>
  <path d="M68 24 l26 18 h52 l26-18 l28 38 v160 l-34 22 h-92 l-34-22 v-160z" fill="#4f5966" class="o"/>
  <path d="M120 42 v194" fill="none" stroke="#1f1f1f" stroke-width="4"/>
  <rect x="76" y="74" width="36" height="48" rx="7" fill="#6b7686" class="o"/>
  <rect x="128" y="74" width="36" height="48" rx="7" fill="#6b7686" class="o"/>
  <rect x="76" y="132" width="36" height="48" rx="7" fill="#6b7686" class="o"/>
  <rect x="128" y="132" width="36" height="48" rx="7" fill="#6b7686" class="o"/>
  <rect x="92" y="184" width="56" height="34" rx="8" fill="#7d8897" class="o"/>
  <path d="M94 42 l10 18 h32 l10-18" fill="#808a97" class="o"/>
  <path d="M56 98 l12 14 v66 l-12 14" fill="none" stroke="#1f1f1f" stroke-width="4"/>
  <path d="M184 98 l-12 14 v66 l12 14" fill="none" stroke="#1f1f1f" stroke-width="4"/>
</svg>